HIERARCHY
ROOT Hips
{
	OFFSET -3.958830 18.904000 13.208200
	CHANNELS 6 Xposition Yposition Zposition Zrotation Yrotation Xrotation 
	JOINT LHipJoint
	{
		OFFSET 0.000000 0.000000 0.000000
		CHANNELS 3 Zrotation Yrotation Xrotation
		JOINT LeftUpLeg
		{
			OFFSET 1.800000 -1.400000 0.085000
			CHANNELS 3 Zrotation Yrotation Xrotation
			JOINT LeftLeg
			{
				OFFSET 2.215000 -6.000000 0.000000
				CHANNELS 3 Zrotation Yrotation Xrotation
				JOINT LeftFoot
				{
					OFFSET 2.500000 -6.900000 0.000000
					CHANNELS 3 Zrotation Yrotation Xrotation
					JOINT LeftToeBase
					{
						OFFSET 0.200000 -0.500000 1.950000
						CHANNELS 3 Zrotation Yrotation Xrotation
						End Site
						{
							OFFSET 0.000000 0.000000 0.000000
						}
					}
				}
			}
		}
	}
	JOINT RHipJoint
	{
		OFFSET 0.000000 0.000000 0.000000
		CHANNELS 3 Zrotation Yrotation Xrotation
		JOINT RightUpLeg
		{
			OFFSET -1.800000 -1.400000 0.085000
			CHANNELS 3 Zrotation Yrotation Xrotation
			JOINT RightLeg
			{
				OFFSET -2.215000 -6.000000 0.000000
				CHANNELS 3 Zrotation Yrotation Xrotation
				JOINT RightFoot
				{
					OFFSET -2.500000 -6.900000 0.000000
					CHANNELS 3 Zrotation Yrotation Xrotation
					JOINT RightToeBase
					{
						OFFSET -0.200000 -0.500000 1.950000
						CHANNELS 3 Zrotation Yrotation Xrotation
						End Site
						{
							OFFSET 0.000000 0.000000 0.000000
						}
					}
				}
			}
		}
	}
	JOINT LowerBack
	{
		OFFSET 0.000000 0.000000 0.000000
		CHANNELS 3 Zrotation Yrotation Xrotation
		JOINT Spine
		{
			OFFSET -0.087000 1.940000 -0.288900
			CHANNELS 3 Zrotation Yrotation Xrotation
			JOINT Spine1
			{
				OFFSET 0.000000 1.950000 0.060000
				CHANNELS 3 Zrotation Yrotation Xrotation
				JOINT Neck
				{
					OFFSET 0.000000 0.000000 0.000000
					CHANNELS 3 Zrotation Yrotation Xrotation
					JOINT Neck1
					{
						OFFSET 0.000000 1.600000 0.340000
						CHANNELS 3 Zrotation Yrotation Xrotation
						JOINT Head
						{
							OFFSET 0.000000 1.667000 -0.240000
							CHANNELS 3 Zrotation Yrotation Xrotation
							End Site
							{
								OFFSET 0.000000 0.000000 0.000000
							}
						}
					}
				}
				JOINT LeftShoulder
				{
					OFFSET 0.000000 0.000000 0.000000
					CHANNELS 3 Zrotation Yrotation Xrotation
					JOINT LeftArm
					{
						OFFSET 2.700000 1.550000 -0.730000
						CHANNELS 3 Zrotation Yrotation Xrotation
						JOINT LeftForeArm
						{
							OFFSET 5.450000 0.000000 0.000000
							CHANNELS 3 Zrotation Yrotation Xrotation
							JOINT LeftHand
							{
								OFFSET 3.450000 0.000000 0.000000
								CHANNELS 3 Zrotation Yrotation Xrotation
								JOINT LeftHandIndex1
								{
									OFFSET 0.750000 0.000000 0.000000
									CHANNELS 3 Zrotation Yrotation Xrotation
									End Site
									{
										OFFSET 0.000000 0.000000 0.000000
									}
								}
							}
						}
					}
				}
				JOINT RightShoulder
				{
					OFFSET 0.000000 0.000000 0.000000
					CHANNELS 3 Zrotation Yrotation Xrotation
					JOINT RightArm
					{
						OFFSET -2.700000 1.550000 -0.730000
						CHANNELS 3 Zrotation Yrotation Xrotation
						JOINT RightForeArm
						{
							OFFSET -5.450000 0.000000 0.000000
							CHANNELS 3 Zrotation Yrotation Xrotation
							JOINT RightHand
							{
								OFFSET -3.450000 0.000000 0.000000
								CHANNELS 3 Zrotation Yrotation Xrotation
								JOINT RightHandIndex1
								{
									OFFSET -0.750000 0.000000 0.000000
									CHANNELS 3 Zrotation Yrotation Xrotation
									End Site
									{
										OFFSET 0.000000 0.000000 0.000000
									}
								}
							}
						}
					}
				}
			}
		}
	}
}
MOTION
Frames: 4
Frame Time: 0.016667
2.427130 17.893000 -3.341770 0.393705 -14.810806 10.709025 -14.935374 13.161870 4.118747 -8.033249 -2.625104 -14.727199 -5.268764 2.536503 -3.864086 -0.262292 2.568057 3.827290 0.034440 -0.010940 -0.044100 18.385166 -10.681140 3.308578 0.493714 -1.206847 -0.471757 4.166913 -3.974717 4.012276 -0.393035 -3.690182 3.211107 -0.003330 0.282890 0.097020 -3.838974 -2.119091 -8.691020 17.054955 2.550297 10.025080 -10.979762 5.229033 -17.806677 3.164411 -6.015619 -13.777179 -14.922254 7.850706 46.642994 -3.501010 4.933040 0.019010 -2.614105 0.314217 0.650326 1.634768 -4.505076 0.366556 5.555491 1.090176 -0.428904 -4.281323 2.433506 0.214150 0.147310 -0.014820 0.124610 -3.635867 9.926925 9.907959 8.426976 7.148168 0.583667 -4.626812 -9.288348 0.515211 2.998973 -0.938261 -0.136080 0.223560 0.086810 -0.008900 
2.480160 17.908060 -3.408690 0.675903 -16.182636 9.381970 -14.891312 13.039952 3.997459 -6.402205 -2.265756 -13.426358 -6.462147 2.675444 -4.401067 -0.215905 2.701090 3.753610 0.090240 0.036180 0.015880 18.457713 -10.720075 3.250941 -0.979777 -1.271285 0.246992 5.135295 -4.250504 3.795641 -0.475563 -3.806949 3.144153 -0.001060 0.195470 0.105310 -4.017106 -1.890137 -8.504810 16.867875 1.949788 9.719775 -10.887780 4.892964 -12.410987 2.978787 -6.359968 -14.230657 -16.179476 8.092252 46.164779 -3.475370 4.984680 -2.176930 -6.582031 -3.218221 1.909177 7.088456 -0.455220 0.114408 6.223624 1.330851 -0.435361 -4.151326 2.519892 0.274340 0.074310 0.052600 0.117780 0.699307 12.269066 10.457626 3.207544 5.389438 0.107584 -4.785730 -8.935192 0.450982 2.997969 -0.956712 -0.103810 0.195210 0.053960 -0.027170 
2.520660 17.925070 -3.470510 1.156495 -17.361968 8.877343 -14.898967 12.983615 3.883826 -4.434049 -2.054557 -13.294694 -8.509477 2.964295 -4.036492 -0.161697 2.854640 3.687297 0.081770 -0.002910 0.023080 18.481882 -10.700068 3.119049 -2.201087 -1.213295 -0.135208 5.973160 -4.533945 4.505054 -0.500505 -3.789715 3.158713 -0.061460 0.144220 0.100820 -4.063292 -1.916215 -8.270801 15.452524 1.897229 8.397548 -9.148087 4.605273 -6.804536 2.844983 -7.086433 -14.739074 -18.954256 8.452148 44.847032 -2.973830 4.464900 -3.931910 -12.325973 -7.682260 3.262401 14.178936 5.482990 0.260688 4.977781 2.132642 -0.597921 -3.956381 2.611315 0.355580 0.002720 0.100740 0.109440 7.151525 15.510717 11.093047 -5.708420 0.799492 -0.625203 -2.156125 -7.108445 0.069545 2.943870 -0.896729 -0.093470 0.187010 0.053810 -0.038890 
2.547940 17.947840 -3.507370 1.738980 -18.416404 9.088409 -14.910676 13.011543 3.842810 -2.991425 -2.018173 -13.646830 -9.577281 3.134421 -3.550254 -0.106239 2.907708 3.657773 0.100320 0.023610 0.011470 18.464514 -10.695192 3.035745 -3.294187 -1.004268 -1.102623 6.600598 -4.642193 5.016056 -0.503171 -3.719844 3.188330 -0.078860 0.123440 0.103850 -4.019260 -2.007482 -8.167965 13.997211 1.735283 7.659923 -8.306580 4.106144 -5.824736 2.571901 -7.722362 -14.791506 -20.849040 9.369549 43.995681 -1.478060 4.334790 -4.984710 -13.852804 -8.955813 3.624503 16.635409 7.134720 0.362145 3.594784 3.405241 -0.777028 -3.855729 2.677931 0.378130 -0.037550 0.133070 0.127650 9.492535 16.610648 11.088150 -8.678641 -0.138772 -0.895069 -2.484268 -6.166691 0.078645 2.926957 -0.897975 -0.061520 0.176910 0.037010 -0.020020 
